<?xml version="1.0" encoding="utf-8"?>
<!-- Generator: Adobe Illustrator 25.1.0, SVG Export Plug-In . SVG Version: 6.00 Build 0)  -->
<svg version="1.1" id="Layer_1" xmlns="http://www.w3.org/2000/svg" xmlns:xlink="http://www.w3.org/1999/xlink" x="0px" y="0px"
	 viewBox="0 0 512 512" style="enable-background:new 0 0 512 512;" xml:space="preserve">
<style type="text/css">
	.st0{fill:#FAE1D4;}
	.st1{opacity:0.2;fill:url(#Shape_38_);enable-background:new    ;}
	.st2{fill:url(#Shape_39_);}
	.st3{fill:#A47457;}
	.st4{fill:#884E25;}
	.st5{fill:#FFFFFF;}
	.st6{fill:#E0B5A2;}
	.st7{fill:#E8A09D;}
	.st8{fill:none;stroke:#A47457;stroke-width:2.5;stroke-miterlimit:20;}
	.st9{opacity:0.4;fill:url(#Shape_40_);enable-background:new    ;}
	.st10{opacity:0.4;fill:url(#Shape_41_);enable-background:new    ;}
	.st11{fill:#CCA593;}
	.st12{opacity:0.4;fill:#A47457;enable-background:new    ;}
	.st13{opacity:0.4;fill:url(#Shape_42_);enable-background:new    ;}
	.st14{fill:#87858A;}
	.st15{fill:#996D51;}
	.st16{fill:none;stroke:#9A6E51;stroke-width:2.5;stroke-miterlimit:20;}
	.st17{fill:#5C626B;}
	.st18{fill:#535860;}
	.st19{fill:#DFE0E0;}
	.st20{fill:#C9CACA;}
	.st21{fill:#FBE067;}
	.st22{fill:#E7CE5F;}
	.st23{fill:#494F57;}
	.st24{fill:#CB556A;}
	.st25{fill:#E15F76;}
	.st26{fill:#F7C2AD;}
</style>
<g id="Group-50" transform="translate(5.850000, 0.650000)">
	<g id="vetor-_x28_enviar_x29_-01">
		<path id="Shape" class="st0" d="M116.9,351.9c0,0,26.1,28.4,54.5,37.3c0,0,48.3,19.5,83.9,0.6c28.7-36.8,42.7-55.7,49-76.8
			c6.3-21,7.8-44.3-4.8-53.1c-1-17.2-4-32.8-4-32.8l-1.9-19c0,0-40.1,5.3-85.8-4.2c-45.8-9.5-101.1,10.2-106.8,39
			c-1.1,14,0,35.3,11.8,44c-11.1-2.7-24-7.6-24-7.6s14.8,14,18.1,14.8c-12.7-1.9-26.8-9.1-26.8-9.1s-32-3.8-32,23.9
			c0,27.7,42.6,21.4,49,11.2C102.4,330.7,116.9,351.9,116.9,351.9z"/>
		
			<linearGradient id="Shape_38_" gradientUnits="userSpaceOnUse" x1="231.6411" y1="271.7624" x2="231.6411" y2="273.4147" gradientTransform="matrix(48.921 0 0 -110.1177 -11063.5127 30315.6504)">
			<stop  offset="0" style="stop-color:#A97E5E;stop-opacity:0"/>
			<stop  offset="7.280000e-02" style="stop-color:#A77B5B;stop-opacity:7.280000e-02"/>
			<stop  offset="0.6682" style="stop-color:#976241;stop-opacity:0.6682"/>
			<stop  offset="1" style="stop-color:#905938"/>
		</linearGradient>
		<path id="Shape_1_" class="st1" d="M304.2,313.8c6.4-21.1,7.9-44.5-4.8-53.3c-1-17.3-4-32.9-4-32.9l-1.9-19c0,0-28.6,3.8-65.3-0.7
			c0.5,18.7,2.3,54.6,8.7,75.3c8.9,28.9,16.4,47.5,16.4,47.5s-9.2,8.6-8.6,12.1c11.1,0.3,11.2,5.1,11.2,5.1s0.9,2.2-1.3,4.2
			c4.6,3.4,5.4,8.4,2.3,11c-3.1,2.7-5.3,10.7-5.6,13.3c-0.4,2.7,2.2,11.4,2.2,11.4l2.2,2.1C284.1,353.6,297.9,334.7,304.2,313.8z"/>
		
			<radialGradient id="Shape_39_" cx="233.1176" cy="272.6701" r="0.9234" gradientTransform="matrix(163.925 0 0 -163.9251 -38105.6562 44804.9414)" gradientUnits="userSpaceOnUse">
			<stop  offset="5.520000e-02" style="stop-color:#A97E5E"/>
			<stop  offset="1" style="stop-color:#905938"/>
		</radialGradient>
		<path id="Shape_2_" class="st2" d="M55.7,290c0,0,16.5-8.8,24.9-4.8c7.6,5,15.5,8.7,26.9,9.4c-9.3-6.1-14.3-12.3-14.3-12.3
			s24.7,8.2,26.6,9.1c-11-9.5-27.2-25-15.4-51.6c11.8-26.7,38.6-42.7,119.5-33.5s125-7.2,138.3-53.7c-7.2,4.2-15.6,9.9-29.4,8.9
			c13.7-14.5,52.2-51.8,24.8-137.7c-17.2,16.8-49.6,30.5-110.4,24.9C186.3,43.2,82.5,13.7,70.8,124C24.2,154.4-6,180.7,55.7,290z"/>
		<path id="Shape_3_" class="st3" d="M55.4,290.6c-5.5-6.2-10.2-13-14.7-20c-4.4-7-8.3-14.4-11.7-22.1c-6.7-15.3-11.6-31.8-12.2-49
			c-0.3-8.6,0.6-17.3,2.9-25.7c2.4-8.4,6.3-16.3,11.5-23.2c5.2-6.9,11.7-12.6,18.8-17.2c7.1-4.5,14.7-8,22.7-10.4
			c-7.1,4.2-13.9,8.7-20,14c-6.1,5.2-11.4,11.1-15.6,17.7c-4.2,6.6-7.2,13.8-9,21.3c-1.8,7.5-2.5,15.3-2.2,23.2
			c0.5,15.7,4.4,31.4,9.7,46.6C41,261.1,47.7,276,55.4,290.6z"/>
		<path id="Shape_4_" class="st3" d="M70.7,123.2c-0.3-7.1,0.3-14.3,1.7-21.4c1.4-7.1,3.6-14,6.7-20.6c3.1-6.6,7.2-12.8,12.2-18.2
			c5-5.4,11-10,17.5-13.6c6.5-3.6,13.5-6.2,20.8-7.8c7.2-1.7,14.6-2.5,21.9-2.7c3.7-0.1,7.3-0.1,11,0.1c1.8,0.1,3.7,0.2,5.5,0.3
			l5.3,0.5l21.4,1.7c7.1,0.5,14.2,1,21.3,1.5c7.1,0.5,14.2,0.9,21.3,1.2c14.2,0.7,28.4,1,42.6,0.6c7.1-0.2,14.1-0.5,21.1-1.2
			c7-0.7,13.9-1.7,20.6-3.2c6.7-1.6,13.2-3.7,18.9-6.9c5.7-3.2,10.5-7.6,13.1-13.2l3.1-6.7l3.9,6.2c2,3.2,3.2,6.3,4.4,9.5
			c1.1,3.2,2,6.4,2.7,9.6c1.5,6.5,2.4,13,2.9,19.5c0.5,6.5,0.6,13.1,0.3,19.6c-0.3,6.5-1.1,13-2.3,19.4c-1.2,6.4-2.8,12.7-5.1,18.9
			c-2.2,6.1-4.9,12.1-8.2,17.7c-3.3,5.6-7.1,10.9-11.5,15.7c-4.3,4.8-9.3,9-14.5,12.7c2.4-2.1,4.8-4.3,7-6.6
			c2.2-2.3,4.3-4.7,6.2-7.2c3.9-5,7.2-10.4,10.1-16.1c2.8-5.6,5.1-11.5,6.9-17.6c1.7-6,3.1-12.2,3.9-18.4c0.9-6.2,1.3-12.5,1.3-18.8
			c0-6.3-0.3-12.5-1-18.8c-0.7-6.2-1.8-12.4-3.4-18.4c-0.8-3-1.7-5.9-2.7-8.8c-1-2.8-2.3-5.6-3.8-7.8l7-0.5c-1.7,3.7-4,7.1-6.8,10
			c-2.8,2.9-6,5.2-9.3,7.2c-6.7,3.9-13.9,6.4-21.1,8.1c-7.2,1.7-14.5,2.8-21.7,3.6c-7.3,0.8-14.5,1.2-21.7,1.4
			c-7.2,0.2-14.5,0.2-21.7,0c-7.2-0.2-14.4-0.5-21.6-0.9c-7.2-0.4-14.3-0.9-21.5-1.4c-7.2-0.6-14.3-1.2-21.4-1.9l-21.4-2.1l-5.3-0.6
			c-1.7-0.1-3.5-0.4-5.2-0.5c-3.5-0.3-7-0.4-10.4-0.4c-7,0-13.9,0.5-20.7,1.9c-6.8,1.3-13.4,3.4-19.6,6.4c-6.2,3-11.9,7-16.8,11.8
			c-5,4.8-9.2,10.4-12.6,16.5c-3.4,6.1-6,12.7-7.9,19.5C72.4,109,71,116,70.7,123.2z"/>
		<path id="Shape_5_" class="st4" d="M290.4,208.6l5.7,36.6l3.1,16.4c0,0,9-27.9,7.7-55.8C297.8,207.6,290.4,208.6,290.4,208.6z"/>
		<path id="Shape_6_" class="st5" d="M250.3,256.4l-1.4,13.5c0,0,30-14.2,41.5-13.7c-2.4-7.9-5.8-16.2-5.8-16.2s-8.1-5.2-33.4,6.9
			C250.9,252.5,250.3,256.4,250.3,256.4z"/>
		<path id="Shape_7_" class="st5" d="M155.7,287.9c0,0,29.7-4.5,53.9,0.6c-0.4-10.8-1.4-28.9-4.2-33.1c-4.6,0.4-23,0.5-47.5,10.7
			C156.5,276.9,155.7,287.9,155.7,287.9z"/>
		<path id="Shape_8_" class="st3" d="M334.2,162.9c2.8,0,5.7-0.2,8.5-0.6c2.8-0.4,5.6-1.1,8.2-2c5.3-1.7,10.3-4.7,13.7-9l2.5-3.3
			l-1,4.1c-3,12.8-9.5,24.9-18.9,34.4c-4.7,4.8-10,8.9-15.7,12.3c-5.7,3.4-11.9,6.1-18.2,8.3c-12.7,4.3-26,6.2-39.2,6.7
			c-13.2,0.5-26.5-0.4-39.5-2.1c-6.6-0.9-12.9-1.9-19.4-2.7c-6.4-0.8-12.9-1.4-19.3-1.8c-12.9-0.8-25.8-0.9-38.5,0.7
			c-12.6,1.6-25.2,5.1-35.2,12.4c-5,3.6-9.1,8.3-12.2,13.6c-3.1,5.3-5.1,11.3-6.4,17.5l0-0.3c-0.5,6.9,0.2,14.1,2.3,20.7
			c1.1,3.3,2.5,6.5,4.4,9.3c1.9,2.8,4.3,5.3,7.1,7.1l11.7,7.8l-13.4-4.2c-5-1.6-10-3.3-15-5.2c-2.5-1-4.9-2-7.4-3.1
			c-1.2-0.6-2.4-1.2-3.6-1.9c-1.2-0.7-2.4-1.5-3.5-2.6l2.2-1.9c2.5,3.5,5.7,6.6,9.1,9.4c3.4,2.8,7,5.5,10.7,7.9l3.9,2.5l-4.4-1
			c-5.2-1.1-10.1-2.6-15-4.5c-4.8-1.9-9.6-4.2-13.8-7.2c4.4,2.7,9.2,4.7,14.1,6.3c4.9,1.6,9.9,2.9,15,3.7l-0.6,1.5
			c-3.9-2.3-7.7-4.8-11.3-7.6c-3.6-2.8-7.1-5.8-10-9.5l2.2-1.9c0.7,0.7,1.8,1.4,2.9,2c1.1,0.6,2.2,1.1,3.4,1.6
			c2.4,1,4.8,1.9,7.2,2.8c4.9,1.7,9.9,3.2,15,4.6l-1.7,3.6c-3.4-2.1-6.2-4.9-8.5-8c-2.3-3.2-3.9-6.7-5.2-10.3
			c-1.3-3.6-2.1-7.3-2.6-11.1c-0.5-3.8-0.7-7.5-0.5-11.4l0-0.1l0-0.2c1.2-6.6,3.3-13.1,6.7-19.1c3.3-6,8-11.3,13.5-15.5
			c5.5-4.2,11.7-7.2,18.1-9.3c6.4-2.2,13-3.5,19.6-4.4c13.2-1.7,26.5-1.7,39.7-0.8c6.6,0.4,13.1,1.1,19.7,1.9
			c6.5,0.8,13.1,1.8,19.4,2.8c12.8,1.8,25.7,2.9,38.6,2.6c12.8-0.3,25.7-1.9,37.9-5.7c12.2-3.8,23.7-9.9,32.9-18.7
			c9.2-8.8,16.1-20,19.6-32.4l1.6,0.8c-1.9,2.3-4.2,4.1-6.8,5.6c-2.5,1.5-5.2,2.5-8,3.3c-2.8,0.8-5.6,1.2-8.5,1.5
			C339.9,163,337,163.1,334.2,162.9z"/>
		<path id="Shape_9_" class="st6" d="M62.4,305.8c0.7-1.9,2-3.5,3.6-5c1.6-1.4,3.5-2.6,5.7-3.3c2.2-0.7,4.5-1,6.8-0.8
			c2.3,0.2,4.5,0.8,6.5,1.6l8.5,3.6l-9.1,0.4c-0.9,0-1.7,0.3-2.6,0.8c-0.9,0.5-1.7,1.2-2.5,2c-0.8,0.8-1.5,1.8-2.2,2.8
			c-0.7,1-1.3,2.1-2,3.2c-0.1-1.3,0-2.5,0.2-3.8c0.2-1.3,0.7-2.5,1.3-3.7c0.6-1.2,1.5-2.4,2.7-3.4c1.2-1,2.8-1.8,4.5-2l-0.6,4
			c-3.5-1.2-7-1.7-10.5-1.1C69.2,301.8,65.7,303.5,62.4,305.8z"/>
		<path id="Shape_10_" class="st7" d="M207.5,356.5c4.6,1.6,9.1,2.9,13.6,3.6c2.2,0.3,4.5,0.5,6.6,0.3c1-0.1,2.1-0.3,3-0.6
			c0.5-0.2,0.9-0.3,1.4-0.5l1.6-0.8c4.4-2.1,8.8-4,13.4-5.4c2.3-0.8,4.6-1.4,7-1.9c1.2-0.2,2.4-0.4,3.6-0.5c1.2-0.1,2.5-0.1,3.7,0.2
			c-2.4,0.5-4.5,1.6-6.6,2.6c-2.2,1-4.3,2.1-6.4,3.1c-4.3,2.1-8.5,4.2-12.8,6.3l-1.6,0.8c-0.6,0.3-1.3,0.6-2,0.7
			c-1.3,0.4-2.7,0.6-4,0.6c-2.6,0.1-5.2-0.4-7.6-1.2C215.5,362.3,211.2,359.8,207.5,356.5z"/>
		<path id="Shape_11_" class="st7" d="M201.3,360.9c-0.2-2.1,0.4-4.3,1.5-6.1c1.1-1.8,2.8-3.2,4.7-3.8c1.8-0.6,3.8-0.6,5.5-0.2
			c1.8,0.4,3.4,1.2,4.9,2.5c-1.8,0.1-3.4,0-5,0.1c-1.6,0.1-3.1,0.3-4.5,0.8C205.5,355.2,203.2,357.4,201.3,360.9z"/>
		<path id="Shape_12_" d="M137,270.8l-1.2-7.1l-71.4,22.4c0,0,9.9-0.3,13.7,0.4C85.6,283.9,137,270.8,137,270.8z"/>
		<path id="Shape_13_" class="st6" d="M79.8,286.2c-4.3-0.4-8.7,0-12.7,1.1c-4,1-7.6,3.1-10.2,6c-2.6,2.8-4,6.6-4.6,10.4
			c-0.6,3.8,0.1,7.3,2.1,10.3c1.9,3,5,5.3,8.5,6.9c3.5,1.6,7.4,2.6,11.3,2.8c7.8,0.5,15.8-1.6,21.3-6.6l4.1-3.7l2.2,4.9
			c1.3,2.9,3,6,4.7,9c1.7,3,3.5,5.9,5.3,8.8c3.7,5.8,7.7,11.4,12.2,16.7c2.2,2.7,4.6,5.2,7,7.7c2.5,2.5,5,4.8,7.7,7.1
			c5.3,4.5,11.1,8.4,17.1,11.8c12.1,6.8,25.6,11,39.2,12.6c13.6,1.5,27.4,0.9,40.8-1.7c3.3-0.6,6.7-1.4,10-2.3
			c1.7-0.4,3.3-0.9,4.9-1.4l2.5-0.7l1.2-0.4l0.6-0.2l0.1,0c0.4-0.1-0.5,0.2-0.3,0.1l0.2-0.1c-0.1,0-0.4,0.2-0.4,0.2l0.5-0.4
			c0.2-0.2,0.5-0.5,0.8-0.7c0.5-0.5,1.1-1.1,1.6-1.7c1.1-1.2,2.2-2.5,3.3-3.8c2.1-2.6,4.2-5.3,6.3-8.1c8.2-11,15.9-22.6,22.7-34.5
			c6.8-12,12.8-24.4,16.5-37.5c1.7-6.5,2.9-13.3,2.4-19.9c-0.4-6.7-2.8-13.3-7.5-18.4l0.6-0.7c2.8,2.2,5.2,5,7,8.2
			c1.8,3.2,3,6.7,3.7,10.3c1.4,7.3,0.9,14.7-0.4,21.8c-1.2,7.1-3.4,14.1-5.9,20.8c-2.5,6.7-5.5,13.2-8.7,19.6
			c-6.5,12.7-14.1,24.8-22.8,36.2c-2.2,2.8-4.4,5.6-6.8,8.4c-1.2,1.4-2.4,2.7-3.7,4.1c-0.7,0.7-1.3,1.3-2.1,2
			c-0.4,0.3-0.7,0.7-1.2,1c-0.4,0.4-0.9,0.7-1.6,1.2c-0.1,0.1-0.6,0.3-0.9,0.5l-0.2,0.1c0.1,0-0.9,0.3-0.5,0.2l-0.1,0l-0.7,0.2
			l-1.3,0.4l-2.6,0.7c-1.7,0.5-3.5,0.9-5.3,1.3c-3.5,0.8-7.1,1.5-10.7,2c-7.2,1.1-14.4,1.7-21.6,1.6c-7.2-0.1-14.5-0.9-21.5-2.4
			c-14.1-3-27.5-8.6-39.7-15.9c-6.1-3.6-11.9-7.7-17.5-12.1c-2.8-2.2-5.5-4.5-8.2-6.8c-2.6-2.4-5.2-4.8-7.8-7.3
			c-5-5-9.9-10.3-14.3-15.9c-2.2-2.8-4.3-5.7-6.3-8.7c-2-3-3.8-6-5.6-9.4l6.3,1.2c-3.5,3.6-8.1,6.1-12.8,7.5
			c-4.8,1.4-9.7,1.8-14.5,1.3c-4.8-0.5-9.6-1.7-14-4c-4.3-2.3-8.4-5.6-11.1-10.1c-1.3-2.2-2.2-4.8-2.5-7.4c-0.2-1.3-0.2-2.6-0.1-3.9
			c0-0.6,0.1-1.2,0.2-1.9l0.2-1l0.2-0.8c0.6-2.4,1.4-4.7,2.6-6.9c1.2-2.2,2.7-4.2,4.5-5.8c3.6-3.4,8.4-5.1,12.9-5.7
			c4.6-0.5,9.1-0.1,13.5,1.1L79.8,286.2z"/>
		<path id="Shape_14_" class="st6" d="M161.9,255.4c-2,11-3.7,22-5,33.1l-3.3-0.4C156,277.1,158.8,266.2,161.9,255.4z"/>
		<path id="Shape_15_" class="st6" d="M145.3,289.2c6-1.7,12.2-2.8,18.5-3.6c6.3-0.8,12.6-1.2,19-1.3c6.4,0,12.7,0.3,19,1.3
			c6.3,0.9,12.5,2.5,18.1,4.9c-6.1-1.4-12.3-2.3-18.5-2.9c-6.2-0.5-12.4-0.7-18.7-0.7c-6.2,0-12.5,0.3-18.7,0.7
			C157.8,288.1,151.6,288.6,145.3,289.2z"/>
		<path id="Shape_16_" class="st6" d="M199.2,243c1.5,1.3,2.6,3,3.6,4.7c1,1.7,1.9,3.5,2.6,5.4c1.5,3.7,2.6,7.6,3.5,11.5
			c1.7,7.8,2.4,15.9,2.6,23.9l-3.1,0c0.3-7.9,0.1-15.8-1.1-23.6c-0.6-3.9-1.4-7.8-2.7-11.5c-0.6-1.9-1.4-3.7-2.3-5.5
			C201.6,246.2,200.6,244.5,199.2,243z"/>
		<path id="Shape_17_" class="st8" d="M205.4,255.4c-27-0.2-47.7,10.3-47.7,10.3"/>
		<path id="Shape_18_" class="st6" d="M232.3,337c0,0,17.7-7.1,20-7.1c2.3,0-1.3,0.9-3,4.5c-1.7,3.6-1.7,7.6-4.6,7.9
			C241.7,342.5,233.7,337.1,232.3,337z"/>
		
			<linearGradient id="Shape_40_" gradientUnits="userSpaceOnUse" x1="230.8889" y1="275.555" x2="230.4368" y2="276.8451" gradientTransform="matrix(45.1579 0 0 -37.5401 -10232.5479 10643.0078)">
			<stop  offset="0" style="stop-color:#FFFFFF"/>
			<stop  offset="0.1319" style="stop-color:#FEFEFD"/>
			<stop  offset="0.2554" style="stop-color:#F9F6F2"/>
			<stop  offset="0.3755" style="stop-color:#EEE5DD"/>
			<stop  offset="0.4936" style="stop-color:#DFCCBD"/>
			<stop  offset="0.6102" style="stop-color:#CDAD96"/>
			<stop  offset="0.7257" style="stop-color:#B78B70"/>
			<stop  offset="0.8404" style="stop-color:#9D6948"/>
			<stop  offset="0.9517" style="stop-color:#83461E"/>
			<stop  offset="0.9632" style="stop-color:#804219"/>
		</linearGradient>
		<path id="Shape_19_" class="st9" d="M145.3,265.9l6.7,25.7c0,0,6.5,18.7,38.8,11.9c19.1-4.4,30.6-12.3,28.9-23.3
			c-1.7-11-9.2-34.6-9.2-34.6l-8.2-2.6l-6.5,1.3l-48.2,15.3L145.3,265.9z"/>
		<path id="Shape_20_" class="st4" d="M207.3,237.3l4.4-14.9c0,0-3.4,2.9-11.5,1.1c-4.1-0.9-15.3-3.2-30.7-5.1
			c-15.4-1.9-23.8,6.1-28,19c-4.2,12.9-1.5,5.3-1.5,5.3s9.6-15.6,20.1-12C170.4,234.5,195.5,241,207.3,237.3z"/>
		<path id="Shape_21_" class="st4" d="M233.8,234.7l-3.5-9.6c0,0,8.9,1,16.7,0c6.7-0.8,34.1-3.9,37.2-4.8l-1.6,3.9L233.8,234.7z"/>
		
			<linearGradient id="Shape_41_" gradientUnits="userSpaceOnUse" x1="232.9198" y1="275.3515" x2="232.7214" y2="276.5617" gradientTransform="matrix(91.5702 0 0 -40.0428 -21099.9824 11320.8506)">
			<stop  offset="0" style="stop-color:#FFFFFF"/>
			<stop  offset="0.9294" style="stop-color:#FFFFFF"/>
			<stop  offset="0.9632" style="stop-color:#FFFFFF"/>
		</linearGradient>
		<path id="Shape_22_" class="st10" d="M153.4,292.2l-6.6-25.8l1.8-5.1l-1.1,0.4l-2.3,6.3l6.6,25.8c0,0,6.4,18.8,38.4,11.9
			c11.5-2.7,20.2-6.6,24.9-11.8c-4.9,4.5-13,7.9-23.4,10.3C159.9,310.9,153.4,292.2,153.4,292.2z M264.8,283.3
			c-18.4,2.7-22.5-13.3-22.5-13.3l-7.4-29c-0.6,0.3-1.1,0.5-1.7,0.8l7.6,29.7c0,0,4.2,15.9,22.5,13.3c13.5-2,27.3-4.2,33.3-11.2
			C289.9,279.4,277.3,281.5,264.8,283.3z"/>
		<path id="Shape_23_" class="st11" d="M253.1,232.7c0,0-0.3,2.4-0.8,6.1c-0.1,0.9-0.3,1.9-0.3,3c-0.1,1.1-0.2,2.2-0.2,3.3
			c-0.2,2.3-0.3,4.8-0.5,7.2c-0.7,9.8-1.4,19.6-1.4,19.6l-2.9-0.3c0,0,1.5-9.8,2.9-19.6c0.4-2.4,0.7-4.9,1.1-7.2
			c0.2-1.1,0.3-2.2,0.5-3.3c0.1-1.1,0.4-2,0.5-2.9C252.6,235.1,253.1,232.7,253.1,232.7z"/>
		<path id="Shape_24_" class="st11" d="M275.9,228.5c0,0,1.1,1.6,2.7,4.1c0.8,1.2,1.6,2.7,2.6,4.3c0.4,0.8,0.9,1.6,1.4,2.5
			c0.5,0.9,1,1.7,1.4,2.6c0.9,1.8,1.8,3.5,2.6,5.2c0.4,0.8,0.8,1.7,1.1,2.4c0.3,0.8,0.7,1.5,1,2.2c1.1,2.8,1.8,4.7,1.8,4.7l-2.9,0.9
			c0,0-0.5-1.9-1.3-4.7c-0.2-0.7-0.5-1.4-0.7-2.2c-0.3-0.8-0.6-1.6-0.9-2.5c-0.6-1.7-1.4-3.5-2.1-5.4c-0.3-0.9-0.8-1.8-1.1-2.7
			c-0.4-0.9-0.8-1.8-1.1-2.6c-0.8-1.7-1.5-3.2-2.2-4.5C276.8,230.3,275.9,228.5,275.9,228.5z"/>
		<path id="Shape_25_" class="st11" d="M240.6,274c0,0,2.9-2.2,7.7-5c2.4-1.4,5.1-2.9,8.2-4.4c1.5-0.7,3.1-1.5,4.8-2.2
			c1.6-0.7,3.3-1.4,5-2.1c1.7-0.7,3.4-1.3,5.1-1.8c1.7-0.6,3.4-1,5.1-1.5c1.7-0.4,3.3-0.8,4.8-1c0.8-0.1,1.5-0.2,2.3-0.3
			c0.7,0,1.5-0.1,2.2-0.1c1.4-0.1,2.7,0,3.8,0.2c1.1,0.1,2.1,0.4,2.9,0.7c0.8,0.3,1.3,0.6,1.7,0.9c0.3,0.3,0.5,0.4,0.5,0.4
			s-0.2-0.1-0.6-0.2c-0.4-0.2-1-0.3-1.7-0.5c-0.8-0.1-1.7-0.2-2.7-0.1c-1.1,0-2.3,0.2-3.6,0.4c-1.3,0.2-2.7,0.6-4.2,1
			c-1.5,0.4-3,0.9-4.6,1.4c-3.2,1.1-6.5,2.3-9.8,3.6c-1.7,0.6-3.3,1.3-5,2c-1.6,0.7-3.2,1.3-4.8,2c-3.1,1.3-6,2.5-8.5,3.5
			C244,272.7,240.6,274,240.6,274z"/>
		<path id="Shape_26_" class="st12" d="M243.7,208.5c76.7-3.2,92.1-27.4,101.6-41.8c0,0-22.8,12.6-55.5-2.5
			c59.3-18.2,62.7-109.5,62.7-109.5s-9.8,5.6-35.1,7.1c-19.7,1.2-130.6-12.3-179.5-17.2c-33.6,6.4-61,26.9-66.7,80.1
			C24.6,155-6.3,180.1,55.5,288.9c0,0,10.6-7.6,25.5-3.6c7.6,4.9,15.5,8.6,26.9,9.4c-9.3-6.1-14.4-12.2-14.4-12.2s24.7,8.2,26.6,9.1
			c-11-9.5-27.2-24.9-15.4-51.4s38.6-42.5,119.6-33.4C231.1,207.5,237.5,208.1,243.7,208.5z"/>
		<path id="Shape_27_" d="M163.9,265.6c0,0,0.2,12.6,12.5,14.5c12.3,2,11.2-19.5,8.5-20.5C174.6,261.3,163.9,265.6,163.9,265.6z"/>
		
			<linearGradient id="Shape_42_" gradientUnits="userSpaceOnUse" x1="231.2415" y1="276.4134" x2="230.866" y2="277.6281" gradientTransform="matrix(40.1403 0 0 -33.7861 -9005.0049 9615.5967)">
			<stop  offset="0" style="stop-color:#FFFFFF"/>
			<stop  offset="0.1319" style="stop-color:#FEFEFD"/>
			<stop  offset="0.2554" style="stop-color:#F9F6F2"/>
			<stop  offset="0.3755" style="stop-color:#EEE5DD"/>
			<stop  offset="0.4936" style="stop-color:#DFCCBD"/>
			<stop  offset="0.6102" style="stop-color:#CDAD96"/>
			<stop  offset="0.7257" style="stop-color:#B78B70"/>
			<stop  offset="0.8404" style="stop-color:#9D6948"/>
			<stop  offset="0.9517" style="stop-color:#83461E"/>
			<stop  offset="0.9632" style="stop-color:#804219"/>
		</linearGradient>
		<path id="Shape_28_" class="st13" d="M232.3,240.4l7.5,30.2c0,0,4.1,16.2,22.4,13.5c18.3-2.7,36.9-6,36.4-21
			c-0.6-15-1.5-27.3-1.5-27.3l-3.2-6.9C293.9,228.9,261.3,225.6,232.3,240.4z"/>
		<path id="Shape_29_" d="M142.8,261.5l-4.4,1.2c0,0-1.9,0.4-1.3,3.1c0.6,2.8,0.9,5.5,0.9,5.5s0.3,0.9,2.7,0
			c1.6-0.6,1.6-0.6,1.6-0.6l0.4,3.3l6.5-1.8l-1.6-5.1c0,0-0.9-3.4,7.1-6.2c8-2.8,43.2-13.5,43.2-13.5s7-3.3,8.6,2.1
			c1.1,3.7,1.1,3.7,1.1,3.7s14.5-11.7,29.7-4c-1.1-5-1.1-5-1.1-5s-1.3-3.1,5.9-5.2c7.2-2.1,30.6-10.8,53.8-6.9
			c2.1,4.4,2.9,6.7,2.9,6.7l2.9-1l-1-3l3.6-0.9c0,0,1.2-0.6,0.5-2.9c-0.8-2.3-1.4-4.4-1.4-4.4s-0.8-2-4.5-0.7
			c-1.7-2.4-1.7-2.4-1.7-2.4s-2.3-1.6-6.8-1.2c-4.5,0.4-23.6,2.2-51.4,10.4c-5.4,1.5-8.9,2.6-7.7,6.6c1.2,4,1.2,4,1.2,4
			s-12.8-1.5-20.7,3.1c-1.6-4.9-1.6-4.9-1.6-4.9s-2.1-5.5-12.6-2.6s-31.7,9.2-50.1,16.1C143.7,256.4,141.4,257.5,142.8,261.5z"/>
		<path id="Shape_30_" class="st14" d="M230.4,238.9c0,0-0.2-0.2-0.1-0.8c0-0.5,0.3-1.2,1.1-1.8c0.2-0.1,0.4-0.3,0.6-0.5
			c0.2-0.1,0.5-0.2,0.7-0.4c0.3-0.1,0.5-0.3,0.8-0.4c0.3-0.1,0.6-0.2,0.9-0.3c1.2-0.5,2.6-0.9,4.1-1.3c3-1,6.5-2.1,10.4-3.1
			c1.9-0.5,3.9-1,5.9-1.5c2-0.5,4.1-0.9,6.2-1.4c2.1-0.4,4.1-0.9,6.2-1.1c2.1-0.3,4.1-0.6,6.1-0.9c2-0.3,3.9-0.4,5.7-0.5
			c1.8-0.1,3.5-0.3,5.1-0.4c1.6-0.1,3,0,4.3,0c1.3,0,2.4,0,3.3,0c1.8,0,2.9,0,2.9,0s-4.2,0.1-10.5,0.4c-1.6,0.2-3.3,0.3-5.1,0.5
			c-1.8,0.2-3.7,0.3-5.7,0.6c-2,0.3-4,0.6-6,0.9c-2.1,0.3-4.1,0.8-6.2,1.2c-2.1,0.4-4.1,0.8-6.1,1.3c-2,0.5-4,1-5.9,1.5
			c-1.9,0.5-3.8,1-5.5,1.5c-1.7,0.5-3.4,1-4.9,1.4c-1.5,0.4-2.9,0.8-4.2,1.2c-0.3,0.1-0.6,0.2-0.9,0.3c-0.3,0.1-0.5,0.2-0.8,0.4
			c-0.2,0.1-0.5,0.2-0.7,0.3c-0.2,0.2-0.4,0.3-0.6,0.4c-0.8,0.5-1.1,1.2-1.1,1.7C230.2,238.6,230.4,238.9,230.4,238.9z"/>
		<path id="Shape_31_" class="st3" d="M75.6,129.3c0,0-1.5-20.4,35.3-35.1c-4.2,2.7-21.9,20.3-27.7,37.2
			c17.3-19.3,39.3-25.5,49.7-26.4C87,126.3,56,174.8,56,174.8s9.7-29.1,19-36.6c-18,7.2-32.6,23.5-30.6,40.7
			C42.3,164.9,43.2,146.1,75.6,129.3z"/>
		<path id="Shape_32_" class="st3" d="M286.2,80.4c0,0,47.7,10.1,66.3-25.6C352.5,54.9,323.5,77,286.2,80.4z"/>
		<path id="Shape_33_" class="st15" d="M263.4,105.7c0,0,75.4,28.4,89.1-50.9C352.5,54.9,347.9,95.6,263.4,105.7z"/>
		<path id="Shape_34_" class="st14" d="M137.6,265.8c0,0-0.3-0.3-0.5-0.9c0-0.2,0-0.4-0.1-0.5c0-0.2,0.1-0.4,0.1-0.6
			c0-0.2,0.2-0.4,0.3-0.6c0.1-0.2,0.3-0.4,0.5-0.5l0.6-0.4c0.2-0.1,0.4-0.1,0.6-0.2c0.2-0.1,0.4-0.1,0.6-0.1c0.2,0,0.3-0.1,0.5-0.1
			c0.6-0.1,1-0.1,1-0.1s-0.3,0.3-0.9,0.5c-0.1,0.1-0.3,0.1-0.5,0.2c-0.1,0.1-0.3,0.2-0.5,0.2c-0.2,0.1-0.3,0.2-0.5,0.2l-0.4,0.3
			c-0.2,0.1-0.3,0.2-0.4,0.3c-0.1,0.1-0.2,0.2-0.3,0.4c0,0.1-0.1,0.3-0.2,0.4c0,0.2-0.1,0.3-0.1,0.4
			C137.5,265.3,137.6,265.8,137.6,265.8z"/>
		<path id="Shape_35_" class="st14" d="M143.3,257.5c0,0-0.1-0.2,0-0.6c0-0.2,0.1-0.4,0.3-0.7c0.2-0.2,0.4-0.6,0.7-0.8
			c0.3-0.2,0.6-0.5,1.1-0.8c0.4-0.2,0.9-0.5,1.4-0.7c1-0.5,2.2-0.9,3.5-1.2c2.6-0.8,5.6-1.7,8.9-2.8c3.2-1,6.7-2,10.2-3.1
			c3.5-1,7-2,10.2-3c3.3-0.9,6.3-1.8,8.9-2.5c5.2-1.4,8.7-2.4,8.7-2.4s-3.4,1.1-8.6,2.8c-2.6,0.8-5.6,1.7-8.9,2.8
			c-3.2,1-6.7,2-10.2,3.1c-3.5,1-7,2-10.2,3c-3.3,0.9-6.3,1.8-8.9,2.5c-1.3,0.4-2.5,0.7-3.5,1.1c-1,0.4-1.9,0.8-2.5,1.3
			c-0.3,0.2-0.5,0.5-0.7,0.7c-0.1,0.3-0.3,0.5-0.3,0.7C143.2,257.3,143.3,257.5,143.3,257.5z"/>
		<path id="Shape_36_" d="M253.1,246.4c0,0,1.2,10.2,9.6,11.1c8.4,0.8,7.3-15,6.3-16.5C267.2,241.4,253.1,246.4,253.1,246.4z"/>
		<path id="Shape_37_" class="st16" d="M251,247.2c0,0,24.1-12.1,33.2-7"/>
	</g>
</g>
<path class="st17" d="M251.2,376.3l-19,19l-35.8-35.8c-5.2-5.2-5.2-13.7,0-19c5.2-5.2,13.7-5.2,19,0L251.2,376.3z"/>
<path class="st18" d="M202.4,337c-2.2,0.6-4.3,1.7-6,3.5c-5.2,5.2-5.2,13.7,0,19l35.8,35.8l9.5-9.5L205.9,350
	C202.3,346.5,201.2,341.5,202.4,337z"/>
<path class="st19" d="M232.1,395.3l19-19l51.8,51.8l-19,19L232.1,395.3z"/>
<path class="st20" d="M232.1,395.3l9.5-9.5l51.8,51.8l-9.5,9.5L232.1,395.3z"/>
<path class="st21" d="M267.8,376.4L232.2,412c-1.1,1.1-2.9,1.1-4,0l-12.7-12.7c-1.1-1.1-1.1-2.9,0-4l35.6-35.6c1.1-1.1,2.9-1.1,4,0
	l12.7,12.7C268.8,373.5,268.8,375.3,267.8,376.4z"/>
<path class="st22" d="M241.4,398.9l-12.7-12.7c-1.1-1.1-1.1-2.9,0-4l-13.1,13.1c-1.1,1.1-1.1,2.9,0,4l12.7,12.7c1.1,1.1,2.9,1.1,4,0
	l13.1-13.1C244.2,399.9,242.4,399.9,241.4,398.9z"/>
<path class="st17" d="M424.3,376.3l19,19l35.8-35.8c5.2-5.2,5.2-13.7,0-19c-5.2-5.2-13.7-5.2-19,0L424.3,376.3z"/>
<path class="st18" d="M473,337c2.2,0.6,4.3,1.7,6,3.5c5.2,5.2,5.2,13.7,0,19l-35.8,35.8l-9.5-9.5l35.8-35.8
	C473.1,346.5,474.2,341.5,473,337z"/>
<path class="st19" d="M391.5,447.1l-18.9-19l51.8-51.8l19,19L391.5,447.1z"/>
<path class="st20" d="M382,437.6l51.8-51.8l9.5,9.5l-51.8,51.8L382,437.6z"/>
<path class="st21" d="M407.7,376.4l35.6,35.6c1.1,1.1,2.9,1.1,4,0l12.7-12.7c1.1-1.1,1.1-2.9,0-4l-35.6-35.6c-1.1-1.1-2.9-1.1-4,0
	l-12.7,12.7C406.6,373.5,406.6,375.3,407.7,376.4z"/>
<path class="st22" d="M434.1,398.9l12.7-12.7c1.1-1.1,1.1-2.9,0-4l13.1,13.1c1.1,1.1,1.1,2.9,0,4L447.2,412c-1.1,1.1-2.9,1.1-4,0
	l-13.1-13.1C431.3,399.9,433,399.9,434.1,398.9z"/>
<path class="st23" d="M235.2,486.5c0-56.6,45.9-102.5,102.5-102.5s102.5,45.9,102.5,102.5H235.2z"/>
<path class="st18" d="M440.2,486.5H271.6l97.6-97.6C410.4,402.2,440.2,440.8,440.2,486.5z"/>
<path class="st24" d="M305.7,486.5h-34.1l97.6-97.6c8.2,2.7,16.1,6.4,23.2,10.8L305.7,486.5z"/>
<path class="st17" d="M235.2,486.5h168.6l-97.6-97.6C265.1,402.2,235.2,440.8,235.2,486.5z"/>
<path class="st18" d="M347.4,384.5c-3.1-0.3-6.4-0.5-9.6-0.5c-56.6,0-102.5,45.9-102.5,102.5h19.3
	C254.4,433.1,295.3,389.3,347.4,384.5z"/>
<path class="st25" d="M369.7,486.5h34.1l-97.6-97.6c-8.2,2.7-16.1,6.4-23.2,10.8L369.7,486.5z"/>
<path class="st24" d="M311.8,394.4l-5.6-5.6c-8.2,2.7-16.1,6.4-23.2,10.8l8.1,8.1C297.5,402.6,304.4,398.1,311.8,394.4z"/>
<path class="st17" d="M447.9,290.7c0,60.8-49.3,110.1-110.1,110.1s-110.1-49.3-110.1-110.1S277,180.6,337.8,180.6
	S447.9,229.8,447.9,290.7z"/>
<path class="st18" d="M246.1,290.7c0-57.7,44.4-105.1,100.9-109.7c-3-0.3-6.1-0.4-9.2-0.4c-60.8,0-110.1,49.3-110.1,110.1
	S277,400.8,337.8,400.8c3.1,0,6.2-0.1,9.2-0.4C290.5,395.7,246.1,348.4,246.1,290.7z"/>
<path class="st18" d="M227.6,290.7c0,2.7,0.1,5.4,0.3,8c0.4,0,0.9,0.1,1.3,0.1h217.1c0.4,0,0.9,0,1.3-0.1c0.2-2.7,0.3-5.3,0.3-8
	c0-8.4-0.9-16.5-2.7-24.4H230.3C228.5,274.1,227.6,282.3,227.6,290.7z"/>
<path class="st26" d="M378.1,337.5l-13.7-5.7c-17-7.1-36.2-7.1-53.2,0l-13.7,5.7c-16.4,6.8-34.5-5.2-34.5-23c0-13.8,11.2-25,25-25
	h99.9c13.8,0,25,11.2,25,25C412.6,332.2,394.5,344.4,378.1,337.5z"/>
<path class="st25" d="M229.1,289.5h217.1c4.3,0,7.7-3.6,7.4-7.9c-1-12-3.9-23.5-8.4-34.1c-1.1-2.7-3.8-4.5-6.8-4.5H237
	c-2.9,0-5.6,1.7-6.8,4.5c-4.6,10.6-7.4,22.1-8.4,34.1C221.5,285.8,224.8,289.5,229.1,289.5z"/>
<path class="st24" d="M240.3,281.6c1-12,3.9-23.5,8.4-34.1c1.1-2.7,3.8-4.5,6.8-4.5H237c-2.9,0-5.6,1.7-6.8,4.5
	c-4.6,10.6-7.4,22.1-8.4,34.1c-0.3,4.3,3.1,7.9,7.4,7.9h18.5C243.3,289.5,239.9,285.8,240.3,281.6z"/>
<g>
	<path class="st23" d="M208.5,352.7l-9.5,9.5l6.6,6.6l9.5-9.5c1.8-1.8,1.8-4.8,0-6.6S210.3,350.8,208.5,352.7z"/>
	<path class="st23" d="M219.4,363.5l-9.5,9.5l6.6,6.6l9.4-9.5c1.8-1.8,1.8-4.8,0-6.6C224.1,361.7,221.2,361.7,219.4,363.5z"/>
	<path class="st23" d="M466.9,352.7c-1.8-1.8-4.8-1.8-6.6,0c-1.8,1.8-1.8,4.8,0,6.6l9.5,9.5l6.6-6.6L466.9,352.7z"/>
	<path class="st23" d="M456,363.5c-1.8-1.8-4.8-1.8-6.6,0c-1.8,1.8-1.8,4.8,0,6.6l9.5,9.5l6.6-6.6L456,363.5z"/>
	<path class="st23" d="M377,317.4c-2.5,0-4.5-2-4.5-4.5v-7c0-2.5,2-4.5,4.5-4.5s4.5,2,4.5,4.5v7C381.4,315.4,379.4,317.4,377,317.4z
		"/>
	<path class="st23" d="M298.5,317.4c-2.5,0-4.5-2-4.5-4.5v-7c0-2.5,2-4.5,4.5-4.5s4.5,2,4.5,4.5v7C303,315.4,301,317.4,298.5,317.4z
		"/>
</g>
</svg>
